PathFileType	4	(X/Y/Z)	C:/Users/beibeiliu/ov580/test_trc/capture2\sequence.11_training_dense_right.trc
DataRate	CameraRate	NumFrames	NumMarkers	Units	OrigDataRate	OrigDataStartFrame	OrigNumFrames
120	120	24	19	mm	120	44	350
Frame#	Time	ThumbCMC			ThumbMCP			ThumbIP			ThumbTip			IndexMCP			IndexPIP			IndexTip			MiddleMCP			MiddlePIP			MiddleTip			RingMCP			RingPIP			RingTip			PinkyMCP			PinkyPIP			PinkyTip			BackHand1			BackHand2			BackHand3	
		X0	Y0	Z0	X1	Y1	Z1	X2	Y2	Z2	X3	Y3	Z3	X4	Y4	Z4	X5	Y5	Z5	X6	Y6	Z6	X7	Y7	Z7	X8	Y8	Z8	X9	Y9	Z9	X10	Y10	Z10	X11	Y11	Z11	X12	Y12	Z12	X13	Y13	Z13	X14	Y14	Z14	X15	Y15	Z15	X16	Y16	Z16	X17	Y17	Z17	X18	Y18	Z18	
43	0.358333	164.675	23.6102	-44.1914	151.13	31.3387	-66.2066	148.678	37.1364	-92.12	144.781	39.0967	-113.838	161.785	-28.2409	-95.312	160.333	-35.4546	-125.494	154.921	-44.651	-144.156	150.649	-50.9961	-86.8442	144.707	-65.4194	-111.721	132.976	-78.3491	-133.673	135.585	-61.8806	-73.1665	122.566	-77.768	-95.6302	106.533	-88.4737	-112.02	114.301	-66.7602	-50.9961	99.119	-77.0496	-64.2341	80.0547	-90.4471	-74.9506	153.603	-39.1254	-31.1149	159.289	-29.6748	-8.57887	170.937	-14.6754	-34.2531	
44	0.366667	161.975	18.1493	-44.964	153.172	30.1312	-65.7044	150.935	35.7197	-91.8225	147.612	38.2998	-115.385	162.436	-30.651	-99.9709	159.441	-36.0298	-121.759	151.518	-50.7263	-143.874	149.172	-53.856	-89.3093	139.771	-70.0376	-109.905	128.492	-81.6931	-134.082	131.04	-65.5153	-75.1866	119.306	-79.2883	-95.1407	102.307	-88.3959	-111.956	113.022	-63.8748	-54.3838	93.2321	-76.7248	-64.2514	78.2051	-87.5702	-78.2868	151.724	-43.8098	-33.515	156.665	-28.0337	-5.02653	171.349	-14.2441	-35.0447	
45	0.375	162.654	17.6011	-44.423	155.319	29.2655	-69.4972	155.476	35.5047	-95.3549	152.122	37.9425	-118.747	160.147	-32.369	-94.7341	158.432	-37.3368	-121.944	152.417	-50.8883	-145.926	149.169	-54.4003	-88.6662	141.427	-67.8769	-109.195	126.074	-83.4605	-133.068	131.213	-62.322	-72.9473	116.879	-79.159	-94.2931	101.153	-88.9985	-113.106	108.978	-67.2688	-52.8336	95.132	-73.6921	-64.5588	73.7832	-89.5507	-74.1656	150.964	-40.8665	-32.624	155.973	-31.2025	-2.96351	171.795	-15.4073	-38.7865	
46	0.383333	165.198	17.8187	-45.4154	156.642	25.9862	-68.1127	156.714	32.1982	-97.6241	153.496	33.2641	-114.673	161.621	-32.0031	-96.9374	157.03	-42.8286	-120.362	151.147	-56.3363	-145.269	147.305	-56.9979	-87.079	139.547	-71.293	-110.527	125.337	-84.8617	-132.629	130.705	-64.3142	-73.096	116.179	-79.9424	-94.4276	99.7543	-89.0856	-114.213	106.521	-69.3728	-52.5068	87.9932	-77.4163	-65.4194	75.4566	-87.7248	-78.4118	145.831	-47.3998	-32.7245	154.221	-35.1458	-6.73925	169.376	-20.4694	-35.6618	
47	0.391667	165.242	13.7911	-40.4202	160.135	26.6244	-68.4783	160.483	32.0122	-93.7777	154.979	29.165	-116.35	162.77	-33.1188	-95.5394	157.362	-46.732	-120.175	155.1	-54.0061	-142.842	145.499	-61.4008	-86.7725	137.879	-74.8056	-112.038	126.316	-86.1645	-136.284	128.91	-66.2397	-71.9254	112.714	-82.8045	-93.3563	99.5563	-88.9712	-113.053	106.722	-67.7653	-53.6554	92.0625	-75.2495	-67.7726	76.725	-88.827	-78.4439	147.486	-48.3529	-29.0057	155.918	-33.0443	-4.09858	170.934	-20.2433	-32.3487	
48	0.4	167.786	13.9815	-41.7755	162.359	26.5943	-66.3919	161.221	29.8189	-94.9717	157.679	31.1566	-113.299	162.444	-39.5029	-98.905	161.568	-43.1716	-119.081	154.173	-56.6282	-140.085	145.222	-62.6941	-86.5633	139.185	-73.9001	-110.135	126.471	-86.3618	-134.968	129.66	-67.4506	-74.1987	115.491	-80.7772	-90.915	95.4842	-90.7669	-115.636	106.631	-66.4485	-52.2719	88.4636	-76.575	-62.9644	76.1672	-88.4292	-77.6284	146.293	-47.5487	-27.6223	153.498	-37.3432	-4.7828	171.175	-22.776	-32.8594	
49	0.408333	166.91	9.82046	-41.2472	161.86	21.6916	-69.624	162.712	29.3455	-91.0956	159.146	28.7607	-114.832	161.921	-39.2578	-94.2686	159.219	-48.038	-122.233	154.012	-58.5099	-144.172	148.492	-59.0159	-84.6245	136.097	-78.12	-109.353	126.017	-86.2964	-132.011	126.224	-70.3676	-71.7975	116.66	-80.8349	-91.9903	97.3101	-90.7309	-115.158	108.292	-65.6742	-53.427	87.7677	-75.4781	-63.1124	76.0978	-88.6666	-75.5311	145.635	-49.8992	-29.1498	152.804	-35.6662	-5.67669	171.59	-25.5993	-30.8999	
50	0.416667	170.098	12.8638	-43.175	163.968	26.2624	-66.5928	163.814	30.3705	-89.4496	162.339	31.4237	-114.884	165.952	-37.8065	-95.6463	162.925	-45.0349	-120.126	156.903	-55.2039	-140.881	148.4	-61.4494	-87.6572	140.175	-72.2124	-107.659	123.663	-86.7349	-129.525	126.814	-68.8086	-70.5358	115.551	-79.5738	-90.0289	96.476	-88.5329	-113.75	106.979	-64.8759	-53.3978	91.461	-74.4653	-66.3302	71.2413	-86.5481	-73.0307	147.604	-48.2805	-32.3268	154.467	-36.6143	-5.50577	170.657	-24.3757	-29.0535	
51	0.425	171.802	16.3592	-39.4939	163.68	23.772	-67.2382	163.124	29.6694	-88.8797	163.076	31.7318	-113.688	165.294	-36.611	-92.0674	161.752	-43.1729	-116.486	159.397	-51.6575	-142.167	148.896	-57.4115	-83.3566	140.913	-70.6004	-106.674	127.967	-82.904	-134.522	127.096	-66.5419	-69.3606	116.577	-78.1635	-95.1634	97.9437	-86.3717	-114.846	107.055	-64.5731	-54.4362	89.7907	-71.5205	-61.7724	71.0884	-87.0649	-76.8886	147.793	-47.561	-31.6651	151.979	-36.676	-2.30635	173.823	-23.3971	-30.2367	
52	0.433333	173.201	15.579	-40.618	165.645	27.4842	-66.306	163.972	29.5937	-90.7505	165.663	34.796	-111.848	165.359	-36.3221	-96.5148	165.243	-41.0102	-121.434	157.022	-53.8218	-144.653	148.799	-59.1197	-85.8973	142.487	-68.1199	-108.984	126.38	-81.957	-132.688	129.408	-64.9422	-74.6613	116.616	-75.669	-93.9349	99.157	-84.0323	-116.487	108.812	-61.9557	-54.633	91.114	-70.7414	-65.9774	73.3385	-83.4619	-76.9943	147.261	-47.3356	-29.8058	155.355	-31.4064	-2.59773	171.62	-22.8902	-30.2485	
53	0.441667	172.882	17.0708	-40.0665	167.051	29.6887	-65.8354	165.816	33.1998	-88.7754	166.627	35.3708	-115.601	166.846	-32.8737	-93.9363	163.733	-40.3601	-117.109	157.913	-50.6628	-140.452	152.12	-54.2405	-86.7389	141.477	-70.1736	-111.547	128.024	-80.3376	-132.629	128.54	-64.9801	-74.7407	116.776	-74.8341	-92.945	102.881	-80.5552	-119.938	108.318	-60.0325	-53.1853	90.1868	-67.6375	-62.9256	76.3911	-81.1371	-77.4284	149.264	-44.77	-28.6714	156.045	-31.8997	-4.27211	175.878	-20.8546	-32.3475	
54	0.45	171.969	17.864	-39.1722	165.596	29.2686	-63.5431	167.322	33.5991	-91.7088	167.017	37.3499	-111.184	168.051	-32.6434	-97.843	166.709	-38.318	-122.991	161.584	-47.6035	-141.919	152.944	-53.326	-88.759	143.458	-66.8128	-113.453	133.108	-74.4525	-135.237	132.021	-60.4291	-77.615	117.559	-72.7004	-93.276	104.633	-78.1204	-116.689	108.388	-59.2878	-57.2162	91.1281	-65.7621	-68.1823	72.132	-80.2108	-79.8005	151.197	-41.285	-33.9417	156.225	-30.2182	-4.22621	177.035	-19.8089	-35.2237	
55	0.458333	173.688	19.9204	-40.4242	168.016	30.0667	-67.4369	170.037	37.7675	-89.908	168.375	37.9924	-115.529	171.802	-26.8466	-97.8948	167.726	-35.2454	-121.459	163.796	-44.0964	-141.884	154.555	-49.5561	-88.5176	146.318	-61.8235	-112.073	131.761	-73.2338	-138.042	132.741	-56.5041	-74.1514	122.271	-67.1119	-100.04	103.775	-75.7043	-118.561	112.631	-53.7803	-57.1434	91.9571	-62.5219	-67.5858	78.845	-75.235	-81.3856	152.799	-40.1804	-34.0028	157.91	-26.2334	-5.10171	179.867	-14.452	-36.1195	
56	0.466667	177.94	23.1163	-41.1012	172.111	35.8792	-67.6258	173.625	39.3249	-92.0881	173.454	42.5714	-114.919	173.289	-24.9057	-97.9939	172.901	-28.8214	-120.148	167.899	-39.8916	-145.259	157.31	-45.2065	-88.6305	147.835	-57.6203	-110.077	135.802	-67.0392	-137.376	137.708	-50.2461	-77.1998	121.836	-64.6655	-97.2609	105.885	-69.5517	-118.373	115.762	-49.6719	-60.5087	95.2197	-57.6072	-68.1963	76.3115	-68.7593	-80.598	153.558	-34.9936	-32.3398	160.792	-24.02	-6.59322	179.537	-13.3001	-35.1137	
57	0.475	181.633	28.1971	-40.3506	177.19	39.7098	-69.4176	179.611	46.0058	-95.3913	176.939	46.3924	-112.322	178.911	-18.2481	-97.1247	175.844	-26.8471	-121.714	169.392	-36.0108	-146.129	158.421	-41.7947	-89.0625	151.506	-54.3022	-114.778	138.042	-63.008	-137.339	138.317	-47.3055	-76.2483	126.539	-59.1683	-97.8099	112.798	-63.1945	-123.566	114.801	-47.4674	-59.6288	100.699	-52.4469	-72.6804	78.8639	-65.5952	-85.8014	159.206	-29.7457	-34.6422	162.046	-21.8233	-9.62141	182.03	-10.1061	-34.9469	
58	0.483333	184.107	29.2953	-42.0908	179.916	44.3329	-65.5452	184.514	51.001	-90.0248	181.135	50.2514	-113.816	179.884	-16.0238	-96.6124	181.109	-21.7371	-124.062	175.068	-30.337	-145.793	161.915	-36.9627	-88.5042	151.601	-52.1896	-114.877	142.421	-58.6794	-142.813	144.062	-42.5037	-79.9902	126.579	-55.5661	-99.8918	115.402	-59.65	-122.367	117.843	-42.529	-59.658	100.336	-49.0161	-72.3396	81.1568	-60.6263	-84.3018	157.647	-26.8279	-32.957	164.305	-17.0984	-4.96127	185.208	-6.42897	-33.0201	
59	0.491667	185.696	31.7005	-40.318	185.119	48.031	-65.518	183.99	49.1308	-91.5673	185.54	54.1205	-111.453	185.562	-11.367	-97.1149	182.422	-19.7095	-121.221	176.098	-30.6424	-144.907	164.073	-36.0266	-91.8225	156.094	-48.2569	-115.362	145.419	-55.5524	-139.118	143.475	-41.8778	-79.2625	129.661	-52.969	-100.044	115.382	-56.9929	-122.033	120.787	-38.5256	-58.7742	102.188	-44.8764	-71.0989	85.7464	-53.2936	-86.4555	160.101	-25.3796	-37.9769	166.423	-15.1031	-5.7372	187.162	-5.07093	-31.7291	
60	0.5	191.302	36.49	-39.2907	185.349	46.5742	-64.6993	190.333	54.3629	-89.8046	191.834	59.36	-112.862	186.95	-13.6633	-98.5464	186.625	-18.1083	-125.358	182.944	-27.4349	-148.207	168.914	-31.6272	-89.6457	161.857	-42.9467	-115.143	144.586	-55.3908	-143.054	144.276	-41.4056	-81.8845	131.876	-49.0552	-100.923	116.874	-53.8533	-125.095	121.62	-35.6696	-59.2246	105.492	-42.4665	-78.1485	85.6748	-51.1438	-85.6013	161.771	-25.1087	-35.7949	167.651	-14.5408	-7.18492	189.388	-4.93799	-35.2602	
61	0.508333	192.934	33.6984	-42.5828	191.736	50.9678	-64.0574	195.191	56.3852	-91.0483	192.707	56.2802	-111.936	190.04	-10.9796	-95.2382	186.478	-20.5671	-123.356	185.658	-25.4926	-144.959	167.069	-32.9228	-87.929	163.303	-44.7393	-116.78	151.01	-52.6945	-142.304	148.904	-38.4425	-82.1164	136.858	-48.4909	-100.427	120.436	-53.7007	-124.069	124.128	-37.0152	-64.328	107.017	-41.22	-73.6682	86.3802	-52.8044	-91.9907	161.746	-24.0629	-37.195	167.939	-14.1846	-8.43925	192.88	-2.40493	-35.151	
62	0.516667	195.767	33.1048	-41.6293	191.823	47.4266	-65.1943	196.782	52.9665	-93.8754	197.38	56.1143	-113.475	189.231	-14.6647	-94.6289	187.848	-21.3928	-119.357	188.285	-28.1144	-146.207	169.469	-38.2414	-91.8961	164.46	-45.917	-115.491	149.323	-55.8591	-142.873	147.442	-40.1433	-78.7169	137.79	-50.7221	-104.918	120.555	-55.4481	-128.794	123.765	-36.5984	-60.1691	107.091	-43.292	-77.0131	89.1509	-52.3939	-93.1606	164.137	-23.5553	-34.3851	167.656	-15.1381	-5.1934	190.697	-4.58541	-35.2684	
63	0.525	196.92	30.9451	-43.2897	193.372	44.3021	-66.85	199.318	51.3071	-91.9296	199.727	54.6949	-116.404	190.7	-18.5156	-94.9004	195.314	-22.6507	-122.87	187.066	-33.1366	-146.174	170.157	-38.8973	-89.2029	164.827	-48.6414	-112.242	149.654	-60.0232	-142.499	148.325	-42.3193	-77.6953	136.179	-52.8939	-100.629	122.756	-56.7186	-124.076	125.234	-38.4183	-60.3379	111.861	-43.5419	-75.6276	91.3685	-55.0796	-88.7539	165.527	-28.8131	-35.9589	169.543	-15.121	-5.05287	193.614	-5.39053	-35.3105	
64	0.533333	197.648	29.3902	-37.3553	197.558	42.7296	-68.1852	201.202	50.4689	-89.2903	200.968	50.7746	-115.075	196.845	-18.5363	-93.568	197.121	-25.8507	-123.924	190.767	-35.7939	-145.68	175.661	-40.1485	-90.6913	164.958	-52.5737	-112.999	156.234	-60.039	-140.846	151.372	-45.1982	-78.9296	136.694	-57.603	-103.634	127.519	-59.11	-124.156	128.108	-41.6971	-62.9004	110.684	-47.7564	-76.7372	91.9647	-57.8484	-87.0223	165.466	-31.3207	-35.5246	170.585	-18.7781	-5.30958	193.637	-8.31593	-31.8754	
65	0.541667	199.938	25.8648	-39.0038	196.345	37.4901	-64.6406	203.415	44.9026	-88.4173	202.644	47.2085	-111.196	197.258	-23.2206	-92.4104	194.879	-32.6379	-120.681	193.388	-39.9153	-141.55	173.827	-48.3118	-89.9888	167.398	-56.1324	-111.733	159.358	-62.9938	-138.658	154.562	-49.6501	-81.5316	142.821	-58.8423	-102.824	129.815	-62.3324	-127.716	128.607	-46.291	-64.4081	109.35	-51.3814	-77.5914	95.5189	-60.0346	-89.539	167.598	-33.3724	-32.108	172.414	-19.2828	-4.60804	194.865	-15.4444	-32.31	
66	0.55	201.843	20.7576	-38.5593	198.227	32.5197	-62.5344	206.403	38.1201	-90.3949	205.286	39.209	-111.321	197.154	-31.0129	-93.8812	200.397	-36.0711	-116.681	197.038	-46.5794	-144.051	176.485	-50.3293	-86.3527	169.347	-61.9922	-110.956	157.767	-71.5316	-139.319	153.515	-57.2302	-80.4832	141.139	-65.6391	-102.934	130.783	-67.4748	-124.66	129.943	-51.3533	-61.7476	115.193	-54.5168	-73.8897	92.9319	-64.5943	-87.4725	167.214	-41.7043	-32.8287	171.319	-26.0889	-5.29134	195.635	-17.4381	-29.2315	
